<?xml version="1.0" encoding="UTF-8" standalone="no"?>
<svg
   xmlns:dc="http://purl.org/dc/elements/1.1/"
   xmlns:cc="http://creativecommons.org/ns#"
   xmlns:rdf="http://www.w3.org/1999/02/22-rdf-syntax-ns#"
   xmlns:svg="http://www.w3.org/2000/svg"
   xmlns="http://www.w3.org/2000/svg"
   viewBox="0 0 365 163.75"
   height="163.75"
   width="365"
   xml:space="preserve"
   version="1.1"
   id="svg2"><metadata
     id="metadata8"><rdf:RDF><cc:Work
         rdf:about=""><dc:format>image/svg+xml</dc:format><dc:type
           rdf:resource="http://purl.org/dc/dcmitype/StillImage" /></cc:Work></rdf:RDF></metadata><defs
     id="defs6" /><g
     transform="matrix(1.25,0,0,-1.25,0,163.75)"
     id="g10"><g
       transform="scale(0.1,0.1)"
       id="g12"><path
         id="path14"
         style="fill:#1b6a31;fill-opacity:1;fill-rule:evenodd;stroke:none"
         d="m 884.656,7.55078 c -11.523,-2.08984 -22.547,1.77735 -33.789,2.94142 -41.851,4.3476 -83.101,12.0312 -123.855,22.4609 -31.856,8.1563 -59.629,23.625 -81.75,48.0938 -21.746,24.0861 -47.926,42.6681 -73.778,61.7421 -60.488,44.598 -103.586,103.035 -135.468,170.34 -13.223,27.918 -26.121,56.004 -38.934,84.109 -7.426,16.262 -17.316,30.567 -30.91,42.289 -15.008,12.938 -24.285,29.911 -32.395,47.52 -9.746,21.121 -18.843,42.508 -33.257,61.133 -5.957,7.683 -9.028,17.125 -11.184,26.492 -5.566,24.101 -18.293,45.078 -28.594,67.101 -1.984,4.227 -5.695,7.793 -9.074,11.192 -20.313,20.328 -40.77,40.515 -61.18,60.75 -0.226,3.625 -2.707,5.734 -5.578,6.953 -14.449,6.16 -28.101,14.148 -45.117,12.656 -14.742,-1.289 -23.023,-10.031 -19.332,-24.519 5.973,-23.391 7.48,-46.887 4.844,-70.903 -1.223,-11.218 -0.481,-22.613 0.582,-34.019 0.941,-9.945 6.738,-19.785 2.015,-29.985 -2.324,-5.015 -3.476,-10.222 -3.742,-15.593 -0.457,-9.524 -3.41,-18.215 -7.336,-26.836 -7.273,-16.055 -12.535,-32.891 -14.031,-50.477 -3.2891,-38.879 3.348,-76.254 18.984,-111.965 1.993,-4.55 2.278,-8.3 -0.086,-12.812 -4.238,-8.086 -4.886,-16.817 -2.656,-25.664 10.953,-43.446 10.797,-88.242 16.063,-132.375 2.527,-21.258 -2.981,-42.508 -0.118,-63.809 0.657,-4.859 2.665,-10.027 -0.828,-14.851 -5.48,-7.532 -7.824,-16.348 -9.257,-25.3051 C 123.758,87.125 120.5,82.9922 113.094,82.7305 107.336,81.418 107.391,76.1094 106.16,72.0156 101.594,56.8281 98.1328,41.3203 92.625,26.3828 90.1875,19.75 87.5898,20.082 83.3125,23.957 75.4414,31.0664 69.1875,39.5625 63.3711,48.332 56.4766,58.7539 49.9492,69.4258 43.1641,79.918 37.082,89.332 29.8711,97.8477 20.168,103.617 c -8.3907,4.981 -11.58206,12.305 -11.13675,21.418 1.03515,21.305 2.25005,42.625 3.73045,63.914 0.3242,4.746 1.5078,9.61 3.2735,14.035 6.3359,15.84 9.3945,32.243 7.9765,49.2 -2.6523,32.109 2.3672,63.496 7.7383,94.929 2.2031,12.903 3.1641,25.957 1.832,39.102 -0.6836,6.785 -0.7422,13.644 -0.7422,20.469 0.0391,12.179 0.7344,24.226 -5.1718,35.761 -3.4805,6.797 -3.7813,14.817 -4.0625,22.512 -0.9961,26.152 -3.6524,52.176 -6.0469,78.231 -1.2422,13.554 -0.7813,27.218 1.1914,40.867 2.8242,19.55 0.1289,39.191 -0.418,58.8 -1.2734,45.204 -3.0898,90.442 0.6993,135.618 0.2578,3.093 0.8125,6.23 1.6992,9.195 4.082,13.5 4.6679,26.133 -3.9219,38.77 -5.2969,7.777 -5.2148,17.949 -5.8242,27.269 -3.1719,49.106 -8.86721,98.078 -8.69143,147.373 0.10156,29.58 0.5,59.11 9.28903,87.87 3.918,12.81 1.7891,25.29 -6.24216,36.5 -1.87109,2.6 -5.039059,5.6 -2.90625,9.06 1.875,3.05 5.73829,1.61 8.75781,1.6 15.168,-0.07 18.5156,4.12 15.7734,21.03 -2.871,17.68 -6.3007,35.27 -7.0546,53.21 -0.9571,22.45 -2.0469,44.89 -2.5391,67.35 -0.2031,9.95 2.9883,12.35 11.9453,12.54 6.4453,0.14 9.4609,-2.65 9.9024,-8.88 0.8125,-11.68 5.2226,-21.36 15.4218,-27.95 3.875,-2.51 5.0742,-6.63 5.5664,-11.04 2.6914,-24.58 5.543,-49.16 8.1055,-73.76 3.75,-35.91 7.0977,-71.88 11.0117,-107.78 2.3477,-21.53 3.293,-43.12 3.8399,-64.732 1.2578,-49.801 2.4336,-99.606 3.6445,-149.407 0.0391,-1.988 0.1328,-3.972 0.2344,-5.964 0.0937,-2.09 0.7773,-4.414 2.6054,-5 2.7539,-0.879 2.8008,2.207 3.625,3.769 12.4886,23.731 19.0506,48.379 18.6796,75.856 -0.969,72.289 -1.648,144.618 1.055,216.908 0.828,22.17 2.195,44.33 3.281,66.49 0.516,10.34 0.246,10.9 -9.297,8.9 -7.8201,-1.63 -5.359,4.74 -5.625,7.31 -1.6209,15.84 -2.5506,31.75 -3.699,47.64 -0.1172,1.7 0.1953,3.53 -0.3125,5.1 -5.2578,15.99 5.7185,25.74 22.4415,25.3 26.328,-0.7 36.851,-12.25 35.113,-35.12 -2.047,-27.22 -2.93,-54.53 -4.277,-81.8 -0.113,-2.45 -1.25,-5.44 1.594,-6.97 2.961,-1.61 4.503,1.49 6.476,2.8 33.902,22.43 45.711,55.78 46.485,94.48 0.449,22.47 0.738,22.94 22.695,26.35 25.328,3.93 41.629,-13.94 34.922,-38.61 -7.649,-28.2 -15.942,-56.22 -19.34,-85.4 -1.602,-13.87 0.805,-27.93 -2.555,-41.67 -0.754,-3.07 0.469,-6.15 3.555,-6.88 3.25,-0.78 4.93,2.3 5.953,4.84 3.832,9.46 7.414,19.01 11.117,28.52 3.906,10.03 7.996,20 11.707,30.12 3.586,9.76 10.332,14.59 20.696,14.43 4.839,-0.07 9.675,-0.08 14.511,-0.3 10.934,-0.5 13.887,-3.61 12.321,-14.3 -3.36,-22.76 -6.7,-45.54 -10.782,-68.17 -11.804,-65.36 -27.246,-130.015 -37.89,-195.597 -0.352,-2.254 -0.41,-4.547 -0.797,-6.785 -0.821,-4.684 -1.203,-9.387 3.824,-11.93 5.258,-2.649 8.402,1.035 11.516,4.551 19.238,21.746 38.972,43.074 57.726,65.242 69.278,81.909 144.832,157.539 226.383,227.209 17.227,14.7 32.199,31.19 42.676,51.6 6.582,12.8 17.578,21.5 30.375,27.75 9.469,4.62 18.672,9.54 26.929,16.22 9.61,7.8 21.094,8.2 32.5,6.28 9.473,-1.6 18.911,-4.02 27.969,-7.23 14.531,-5.17 17.817,-19.72 6.719,-30.42 -47.535,-45.85 -95.313,-91.46 -141.191,-139 -1.239,-1.29 -4.141,-1.79 -2.606,-4.33 1.789,-2.96 3.731,-0.66 5.742,0.25 17.774,7.98 30.653,22.43 45.344,34.44 46.285,37.88 90.211,78.38 133.414,119.73 16.859,16.12 37.961,20.83 60.899,16.87 7.968,-1.38 14.867,-4.62 17.21,-13.17 2.383,-8.67 -2.511,-14.77 -8.5,-19.95 -40.058,-34.61 -80.214,-69.12 -120.308,-103.68 -37.93,-32.7 -76.172,-65.07 -110.664,-101.51 -1.184,-1.25 -3.988,-2.08 -2.25,-4.62 1.847,-2.69 3.515,-0.26 4.98,0.64 60.625,36.92 121.172,73.99 181.879,110.79 25.488,15.46 51.305,30.38 77.031,45.45 7.098,4.16 9.082,3.15 11.395,-4.65 2.039,-6.84 0.93,-13.3 -3.555,-18.45 -6.047,-6.94 -10.09,-15.04 -15.058,-22.6 -10.223,-15.52 -24.578,-26.74 -39.559,-37.22 -82.277,-57.6 -163.195,-117 -239.785,-182.095 -62.754,-53.328 -121.281,-111.16 -179.992,-168.808 -7.883,-7.734 -8.078,-10.996 -1.406,-20.762 27.089,-39.676 54.324,-79.25 81.511,-118.847 2.727,-3.965 5.949,-7.657 6.985,-12.559 -1.727,-0.899 -3.371,-2.149 -5.204,-2.664 -23.636,-6.692 -36.925,-21.996 -40.078,-46.504 -1.406,-10.957 -3.937,-21.797 -6.214,-32.641 -5.293,-25.144 -7.02,-50.054 2.855,-74.687 2.617,-6.551 3.047,-13.973 -1.641,-19.598 -10.726,-12.84 -9.746,-27.383 -7.406,-42.176 0.774,-4.843 -0.094,-10.019 3.996,-14.414 18.606,-19.992 32.785,-42.519 38.153,-69.828 0.375,-1.89 1.554,-3.64 2.5,-5.387 8.359,-15.414 20.468,-27.96 31.937,-40.949 3.453,-3.914 8.387,-5.828 13.32,-7.324 5.465,-1.66 9.02,-0.293 8.844,6.219 8.813,-7.594 16.984,-15.797 21.977,-26.492 9.785,-21.008 24.746,-37.645 42.965,-51.551 16.523,-12.598 33.664,-23.207 55.871,-15.942 1.726,-5.027 5.402,-8.562 9.132,-12.117 12.227,-11.652 23.036,-24.472 30.321,-39.844 9.504,-20.089 24.836,-33.7105 45.422,-41.4644 5.918,-2.2265 10.054,-5.6562 13.144,-11.2695 6.082,-11.0273 15.426,-17.2852 28.465,-16.9063 2.625,0.0704 4.973,-0.6523 7.363,-1.7148 20.489,-9.1836 41.203,-17.7734 62.449,-25.1094 10.54,-3.6445 20.598,-8.3476 27.051,-18.21482 z M 51.6719,539.398 l 0,0 c 0,-8.484 -0.2149,-15.312 0.0742,-22.128 0.1992,-4.864 2.9609,-4.582 6.1523,-2.278 2.5313,1.836 2.9532,4.008 2.7071,7.305 -0.6953,9.113 0.6914,18.109 3.9453,26.742 4.8359,12.82 7.9375,26.258 7.0781,39.734 -2.3437,36.907 -3.4336,73.821 -4.6836,110.743 -0.6484,18.925 -5.4883,36.73 -12.2187,54.168 -1.336,3.468 -3.1953,7.023 -8.0469,5.168 -4.3672,-1.661 -6.043,-5.028 -4.6172,-9.434 3.4961,-10.77 2.8516,-21.805 2.6719,-32.871 -0.6016,-38.117 -0.0352,-76.192 2.9609,-114.231 1.6875,-21.492 2.7422,-43.046 3.9766,-62.918 z m -3.4571,-205.117 0,0 C 35.1445,282.309 37.0625,232.719 55.1055,183.82 c 3.6718,15.129 6.4765,30.43 5.5273,45.59 -1.8047,29.199 -2.5195,58.379 -2.6758,87.613 -0.039,6.282 -1.207,12.493 -9.7422,17.258" /><path
         id="path16"
         style="fill:#1b6a31;fill-opacity:1;fill-rule:evenodd;stroke:none"
         d="m 1117.16,929.496 c -13.31,-37.664 -26.03,-74.344 -39.22,-110.859 -29.08,-80.535 -55.19,-162.176 -88.592,-241.121 -19.61,-46.371 -40.696,-92.004 -72.524,-131.614 -35.25,-43.855 -80.808,-70.656 -135.972,-81.484 -7.036,-1.387 -9.786,0.469 -11.43,7.551 -6.715,29.019 -13.777,57.976 -21.387,86.777 -1.695,6.442 -0.23,7.867 5.688,9.461 39.507,10.684 72.047,31.356 94.785,66.309 7.578,11.648 7.996,22.683 2.887,35.382 -47.75,118.661 -95.204,237.442 -142.731,356.188 -0.312,0.766 -0.527,1.551 -1.144,3.41 2.859,0 5.246,0 7.625,0 39.863,0 79.718,-0.144 119.57,0.156 5.902,0.043 8.105,-1.605 9.797,-7.324 24.676,-83.789 52.668,-166.601 73.758,-251.445 0.402,-1.57 1.085,-3.078 2.191,-6.172 4.742,11.516 6.363,22.363 8.992,32.891 18.738,75.144 37.363,150.332 55.918,225.539 0.949,3.867 1.516,6.515 6.719,6.48 41.26,-0.234 82.53,-0.125 125.07,-0.125" /><path
         id="path18"
         style="fill:#1b6a31;fill-opacity:1;fill-rule:evenodd;stroke:none"
         d="m 1681.63,696.02 c -38.98,0 -77.97,-0.168 -116.97,0.148 -7.03,0.055 -8.36,-1.527 -6.89,-8.496 4.82,-23.137 18.47,-39.16 38.62,-50.266 18.54,-10.215 38.78,-14.539 59.68,-15.379 37.78,-1.496 74.96,2.793 111.13,13.942 6.02,1.859 7.05,0.265 8.02,-5.137 4.12,-22.617 8.75,-45.144 13.07,-67.723 0.76,-3.957 2.54,-7.871 -3.9,-10 -72.33,-23.906 -145.78,-32.043 -219.42,-9.074 -70.94,22.133 -109.84,73.52 -121.15,146.145 -8.99,57.609 -0.23,112.304 31.03,162.097 34.31,54.684 85.29,81.684 148.98,85.547 33.07,2.016 65.35,-2.086 95.37,-17.156 43.73,-21.953 68.78,-58.875 82.17,-104.707 10.77,-36.895 11.94,-74.422 7.08,-112.371 -0.76,-6.016 -2.84,-7.774 -8.99,-7.738 -39.27,0.324 -78.55,0.168 -117.83,0.168 z m -54.21,83.132 0,0 c 17.36,0 34.7,0 52.03,0 20.96,0 21.34,0.082 16.96,21.02 -5.06,24.277 -16.36,44.18 -41.33,53.094 -31.81,11.359 -65.05,0.027 -83.53,-28.254 -7.72,-11.824 -12.05,-24.93 -14.88,-38.629 -1.01,-4.953 -0.53,-7.531 5.92,-7.395 21.61,0.45 43.22,0.164 64.83,0.164" /><path
         id="path20"
         style="fill:#1b6a31;fill-opacity:1;fill-rule:evenodd;stroke:none"
         d="m 1406.22,822.457 c -19.29,3.191 -37.95,4.785 -56.49,0.555 -38.89,-8.879 -60.85,-37.453 -61.26,-81.074 -0.53,-54.356 -0.18,-108.719 -0.2,-163.079 0,-11.089 -0.2,-22.207 0.1,-33.289 0.13,-4.472 -1.19,-5.711 -5.67,-5.691 -36.71,0.172 -73.43,0.281 -110.14,-0.078 -6.71,-0.063 -5.59,3.601 -5.59,7.461 0,67.742 -0.06,135.476 0.01,203.211 0.06,56.914 0.2,113.828 -3.24,170.675 -0.38,6.457 0.9,8.641 7.95,8.536 29.59,-0.442 59.2,-0.446 88.79,0.007 6.93,0.106 8.5,-2.242 8.73,-8.511 0.78,-21 2.07,-41.985 3.18,-63.266 5.05,0.645 4.55,4.594 5.63,7.074 17.43,39.399 46.21,64.723 89.36,72.114 10.99,1.886 22.14,1.168 33.22,0.332 2.53,-0.188 5.71,-0.094 5.7,-4.539 -0.12,-36.665 -0.08,-73.34 -0.08,-110.438" /><path
         id="path22"
         style="fill:#1b6a31;fill-opacity:1;fill-rule:evenodd;stroke:none"
         d="m 2214.56,874.848 c -1.66,-5.828 -5.8,-5.938 -10.8,-5.114 -53.83,8.875 -105.76,1.145 -156.14,-18.597 -19.29,-7.567 -33.9,-20.93 -45.71,-38.028 -14.53,-21.015 -27.14,-43.195 -40.81,-64.718 -9.16,-14.442 -14.44,-30.789 -22.19,-45.946 -11.01,-21.543 -24.78,-41.336 -38.1,-61.406 -1.79,-2.703 -4.5,-4.656 -8.02,-3.387 -3.52,1.278 -3.97,4.5 -3.99,7.75 -0.06,7.68 -0.06,15.356 -0.12,23.032 -0.04,4.746 -0.93,9.089 -5.65,11.55 -0.18,52.918 -0.05,105.852 -0.62,158.758 -0.31,27.59 -1.66,55.168 -2.89,82.738 -0.26,5.946 0.5,8.317 7.44,8.211 29.3,-0.453 58.62,-0.332 87.92,-0.07 5.32,0.047 7.13,-1.293 7.57,-6.785 1.24,-15.203 3.23,-30.352 4.93,-45.695 3.91,0.269 4.7,3.5 6.19,5.574 45.75,64.133 138.57,69.109 187.44,33.539 15.31,-11.137 25.78,-24.832 33.55,-41.406 z m -309.39,-98.653 0,0 c -0.92,-10.019 2.28,-10.457 7.2,-7.402 2.62,1.629 5.02,3.664 7.44,5.625 26.08,21.258 43.01,49.187 57.6,78.848 1.29,2.609 2.17,5.265 -1.58,5.859 -4.94,0.789 -10.19,2.07 -14.81,-1.25 -10.74,-7.734 -19.77,-16.785 -24.96,-29.414 -4.87,-11.836 -11.1,-22.762 -20.76,-31.785 -6.47,-6.028 -8.75,-14.953 -10.13,-20.481" /><path
         id="path24"
         style="fill:#2c9ce0;fill-opacity:1;fill-rule:evenodd;stroke:none"
         d="m 884.656,7.55078 c -6.453,9.86722 -16.511,14.57032 -27.051,18.21482 -21.246,7.336 -41.96,15.9258 -62.449,25.1094 -2.39,1.0625 -4.738,1.7852 -7.363,1.7148 -13.039,-0.3789 -22.383,5.879 -28.465,16.9063 -3.09,5.6133 -7.226,9.043 -13.144,11.2695 -20.586,7.7539 -35.918,21.3754 -45.422,41.4644 -7.285,15.372 -18.094,28.192 -30.321,39.844 -3.73,3.555 -7.406,7.09 -9.132,12.117 0.734,4.27 -1.121,6.899 -4.95,8.77 -3.285,1.602 -6.449,3.555 -9.379,5.746 -16.89,12.617 -30.25,29.031 -45.976,42.977 -25.106,22.254 -46.043,48.347 -63.961,76.777 -10.766,17.082 -24.219,32.012 -37.855,46.805 -2.606,2.832 -5.821,4.336 -9.004,2.168 -2.832,-1.922 -1.25,-5.371 -0.215,-7.871 1.289,-3.094 2.621,-7.184 5.176,-8.555 7.543,-4.051 9.804,-11.266 13.144,-18.074 9.34,-19.063 23.801,-35.125 32.207,-54.758 0.176,-6.512 -3.379,-7.879 -8.844,-6.219 -4.933,1.496 -9.867,3.41 -13.32,7.324 -11.469,12.989 -23.578,25.535 -31.937,40.949 -0.946,1.747 -2.125,3.497 -2.5,5.387 -5.368,27.309 -19.547,49.836 -38.153,69.828 -4.09,4.395 -3.222,9.571 -3.996,14.414 -2.34,14.793 -3.32,29.336 7.406,42.176 4.688,5.625 4.258,13.047 1.641,19.598 -9.875,24.633 -8.148,49.543 -2.855,74.687 2.277,10.844 4.808,21.684 6.214,32.641 3.153,24.508 16.442,39.812 40.078,46.504 1.833,0.515 3.477,1.765 5.204,2.664 4.043,-2.473 6.23,-6.516 8.742,-10.285 46.836,-70.321 91.539,-142.098 142.82,-209.356 21.027,-27.566 41.145,-55.933 67.215,-79.304 26.867,-24.082 57.754,-41.192 91.203,-54.082 38.973,-15.028 76.328,-34.051 116.16,-46.934 35.18,-11.359 71.059,-17.391 108.206,-15.535 20.17,1.004 40.43,0.086 60.62,0.711 40.39,1.258 80.5,5.918 120.64,10.164 6.88,0.722 12.86,4.453 19.42,6.242 4.49,1.211 9.37,2.332 12.01,-2.949 2.6,-5.188 0.25,-9.453 -4.15,-12.512 -11.73,-8.141 -23.73,-15.719 -38.28,-17.828 -10.51,-1.535 -19.58,-5.93 -26.61,-13.965 -5.95,-6.828 -13.26,-9.902 -22.35,-10.664 -30.91,-2.602 -61.76,-6.23 -92.45,1.973 -3.74,0.992 -7.93,0.535 -11.91,0.425 -5.57,-0.136 -13.33,2.036 -7.93,-8.875 2.34,-4.726 -2.93,-3.406 -5.21,-3.386 -14.31,0.144 -28.13,3.746 -42.123,6.133 -35.059,5.953 -70.43,9.156 -105.758,12.711 -1.976,0.207 -4.082,0.316 -5.949,-0.192 -21.504,-5.91 -42.195,-2.023 -62.82,4.59 -11.899,3.816 -23.969,7.109 -36.067,10.242 -8.445,2.18 -15.925,-1.406 -20.285,-8.808 -3.629,-6.172 -3.555,-11.59 2.074,-16.79 19.891,-18.308 39.266,-37.187 59.5,-55.105 18.977,-16.8086 42.453,-23.7969 67.012,-27.1953 41.688,-5.7734 82.461,-16.2734 123.836,-23.625 31.32,-5.5664 62.66,-11.7266 94.69,-10.918 25.92,0.6446 51.52,4.2891 76.93,9.2891 6.9,1.3555 13.58,1.2773 19.73,-2.7461 4.95,-3.2617 6.59,-7.3711 2.05,-11.9531 -7.81,-7.8594 -15.82,-15.5743 -24.03,-23.0157 -3.72,-3.3906 -8.7,-4.99996 -13.57,-3.5468 -37.98,11.3593 -76.23,4.6601 -114.19,0.9961 C 1010.63,7.40625 962.641,6.56641 914.539,7.19141 904.59,7.32813 894.617,7.4375 884.656,7.55078 Z M 493.914,531.246 l 0,0 c -2.43,0.067 -3.594,-1.105 -3.883,-3.516 -0.441,-3.664 -1.332,-7.285 -1.625,-10.949 -1.289,-15.867 2.676,-28.554 19.465,-34.629 7.879,-2.851 13.906,-9.113 18.828,-15.703 14.055,-18.847 35.996,-29.844 48.946,-49.715 0.304,-0.453 0.808,-0.793 1.289,-1.105 2.488,-1.668 5.144,-2.84 7.8,-0.547 2.383,2.051 2.954,4.719 1.899,7.734 -0.969,2.813 -3.137,4.688 -5.078,6.75 -13.028,13.875 -26.293,27.43 -36.821,43.555 -13.257,20.281 -32.664,35.586 -46.765,55.301 -0.996,1.398 -2.188,2.637 -4.055,2.824" /><path
         id="path26"
         style="fill:#2c9ce0;fill-opacity:1;fill-rule:evenodd;stroke:none"
         d="m 2214.56,874.848 c 5.02,0.101 5.74,4.843 8.22,7.664 25.3,28.601 54.96,50.82 93.89,55.015 42.99,4.641 83.96,-1.289 115.36,-35.484 18.67,-20.336 28.86,-45.113 35.05,-71.738 5.02,-21.641 5.26,-43.59 5.19,-65.641 -0.2,-72.012 -0.18,-144.035 0.11,-216.047 0.02,-7.215 -2.04,-8.887 -9.03,-8.808 -33.58,0.371 -67.17,0.363 -100.76,0 -6.79,-0.071 -8.45,1.855 -8.42,8.527 0.26,64.598 0.72,129.227 -0.18,193.824 -0.31,21.985 -0.86,44.379 -9.86,65.391 -9.42,21.996 -27.92,33.457 -52.25,31.75 -32.89,-2.313 -52.53,-35.196 -53.83,-62.352 -3.59,-76.445 -0.64,-152.941 -1.48,-229.406 -0.07,-5.813 -1.34,-7.766 -7.5,-7.703 -34.14,0.289 -68.3,0.371 -102.45,-0.051 -7.2,-0.086 -8.2,2.5 -8.18,8.762 0.19,66.894 0.6,133.777 -0.18,200.664 -0.23,20.301 -0.97,40.984 -9.9,60.223 -8.69,18.722 -27.73,31.105 -50.42,29.988 -31.94,-1.563 -54.83,-38.281 -55.86,-64.129 -2.99,-75.906 -0.41,-151.809 -1.27,-227.707 -0.08,-5.75 -1.24,-7.813 -7.43,-7.762 -34.44,0.301 -68.9,0.188 -103.33,0.106 -4.34,-0.02 -7.42,-0.157 -7.39,6.007 0.33,44.676 0.29,89.368 0.37,134.043 4.72,-2.461 5.61,-6.804 5.65,-11.55 0.06,-7.676 0.06,-15.352 0.12,-23.032 0.02,-3.25 0.47,-6.472 3.99,-7.75 3.52,-1.269 6.23,0.684 8.02,3.387 13.32,20.07 27.09,39.863 38.1,61.406 7.75,15.157 13.03,31.504 22.19,45.946 13.67,21.523 26.28,43.703 40.81,64.718 11.81,17.098 26.42,30.461 45.71,38.028 50.38,19.742 102.31,27.472 156.14,18.597 5,-0.824 9.14,-0.714 10.8,5.114" /><path
         id="path28"
         style="fill:#2c9ce0;fill-opacity:1;fill-rule:evenodd;stroke:none"
         d="m 2784.66,580.141 c -8.11,-7.625 -14.53,-14.758 -22.15,-20.614 -46.44,-35.734 -129.98,-40.257 -176.95,2.215 -31.54,28.516 -43.61,64.387 -38.94,106.043 6.47,57.563 42.14,91.184 93.34,111.184 40.01,15.633 82.02,20.168 124.62,20.676 10.56,0.125 10.4,0.152 9.2,10.406 -2.64,22.414 -16,35.414 -36.85,40.746 -32.67,8.355 -64.91,3.68 -96.66,-5.656 -13.66,-4.012 -26.93,-9.207 -39.2,-16.524 -4.38,-2.617 -5.87,-1.199 -7.03,2.961 -6.25,22.137 -12.47,44.285 -19.01,66.34 -1.67,5.613 1.12,7.496 5.37,9.586 28.62,14.047 58.98,22.383 90.35,26.719 37.64,5.211 75.29,6.218 112.74,-2.598 60.5,-14.242 99.81,-56.656 108.96,-118.008 2.35,-15.793 3.55,-31.613 3.5,-47.578 -0.16,-46.68 -0.04,-93.348 -0.01,-140.031 0.01,-26.754 1.02,-53.445 4.81,-79.969 0.58,-4.16 -0.05,-6.18 -5.05,-6.16 -32.72,0.191 -65.47,0.172 -98.19,0.008 -4.55,-0.028 -5.57,1.886 -6.23,5.898 -1.84,11.074 -4.2,22.051 -6.62,34.356 z m -6.66,115.363 0,0 c 0,7.422 -0.59,13.457 0.16,19.336 1.02,8.328 -2.59,10.25 -10.02,9.441 -8.17,-0.886 -16.46,-0.711 -24.62,-1.66 -20.41,-2.375 -40.54,-5.93 -57.65,-18.496 -17.09,-12.531 -22.82,-29.852 -19.92,-50.234 2.58,-18.067 12.95,-30 30.55,-34.973 36.05,-10.195 74.12,13.949 80.62,50.832 1.61,9.035 0.49,18.145 0.88,25.754" /><path
         id="path30"
         style="fill:#2c9ce0;fill-opacity:1;fill-rule:evenodd;stroke:none"
         d="m 113.094,82.7305 c 7.406,0.2617 10.664,4.3945 11.801,11.4804 1.433,8.9571 3.777,17.7731 9.257,25.3051 3.493,4.824 1.485,9.992 0.828,14.851 -2.863,21.301 2.645,42.551 0.118,63.809 -5.266,44.133 -5.11,88.929 -16.063,132.375 -2.23,8.847 -1.582,17.578 2.656,25.664 2.364,4.512 2.079,8.262 0.086,12.812 -15.636,35.711 -22.2731,73.086 -18.984,111.965 1.496,17.586 6.758,34.422 14.031,50.477 3.926,8.621 6.879,17.312 7.336,26.836 0.266,5.371 1.418,10.578 3.742,15.593 4.723,10.2 -1.074,20.04 -2.015,29.985 -1.063,11.406 -1.805,22.801 -0.582,34.019 2.636,24.016 1.129,47.512 -4.844,70.903 -3.691,14.488 4.59,23.23 19.332,24.519 17.016,1.492 30.668,-6.496 45.117,-12.656 2.871,-1.219 5.352,-3.328 5.578,-6.953 -5.8,-12.637 -1.863,-25.742 -1.633,-38.625 1.262,-69.098 17.172,-137.086 16.036,-206.395 -0.153,-9.101 -0.02,-18.203 0.023,-27.316 0,-3.992 -0.059,-8.008 2.613,-11.453 3.098,0.148 3.047,3.019 3.696,4.89 1.109,3.204 1.523,6.645 2.441,9.922 1.649,5.879 2.059,14.082 9.59,14.301 7.215,0.215 11.98,-6.098 14.371,-12.863 5.746,-16.242 7.484,-33.274 8.051,-50.305 0.64,-19.043 0.113,-38.121 0.176,-57.183 0.019,-3.223 -0.86,-6.114 -2.036,-9.063 -6.636,-16.613 -4.07,-27.754 9.778,-38.402 4.894,-3.766 6.57,-7.782 6.543,-13.692 -0.047,-19.265 -5.907,-37.535 -9.297,-56.211 -4.305,-23.726 -9.266,-47.371 -14.774,-70.855 -4.453,-19.055 -14.711,-22.133 -30.003,-9.856 -2.458,1.973 -4.696,4.598 -8.192,2.911 -2.637,-1.282 -2.59,-4.102 -2.879,-6.68 -3.027,-26.524 -5.804,-53.0939 -9.277,-79.5509 -1.777,-13.4297 1.765,-25.9375 4.547,-38.6524 C 192.473,8.55078 191.633,7.26953 181.105,7.19141 171.711,7.125 162.313,7.08594 152.918,7.26953 126.434,7.79688 108.074,29.6211 111.98,55.9688 c 0.989,6.7304 2.375,13.4101 3.684,20.0781 0.559,2.8437 1.613,5.7344 -2.57,6.6836 z m 39.687,399.5585 0,0 c -2.168,-13.691 -3.172,-25.312 -5.992,-36.476 -3.742,-14.727 -0.93,-27.45 8.27,-39.129 2.254,-2.883 4.285,-6.582 8.82,-5.008 4.684,1.609 3.941,5.887 3.484,9.422 -2.078,16.3 -4.004,32.625 -6.804,48.797 -1.196,6.906 -1.7,14.406 -7.778,22.394" /><path
         id="path32"
         style="fill:#2c9ce0;fill-opacity:1;fill-rule:evenodd;stroke:none"
         d="m 1905.17,776.195 c 1.38,5.528 3.66,14.453 10.13,20.481 9.66,9.023 15.89,19.949 20.76,31.785 5.19,12.629 14.22,21.68 24.96,29.414 4.62,3.32 9.87,2.039 14.81,1.25 3.75,-0.594 2.87,-3.25 1.58,-5.859 -14.59,-29.661 -31.52,-57.59 -57.6,-78.848 -2.42,-1.961 -4.82,-3.996 -7.44,-5.625 -4.92,-3.055 -8.12,-2.617 -7.2,7.402" /><path
         id="path34"
         style="fill:#1b6a31;fill-opacity:1;fill-rule:evenodd;stroke:none"
         d="m 1008.63,342.512 25.06,-3.223 c -2.92,-10.195 -7.91,-18.57 -15.01,-25.082 -7.06,-6.508 -16,-9.773 -26.801,-9.773 -11.715,0 -21.027,3.964 -27.906,11.921 -6.907,7.958 -10.364,18.176 -10.364,30.637 0,14.395 4.274,27.16 12.789,38.242 8.516,11.082 20.231,16.637 35.142,16.637 10.85,0 19.62,-3.312 26.34,-9.965 6.72,-6.648 10.15,-15.422 10.29,-26.34 l -26.32,-1.914 c -0.09,5.739 -0.98,10.008 -2.64,12.832 -1.67,2.825 -4.5,4.246 -8.49,4.246 -6.884,0 -11.572,-5.132 -14.091,-15.375 -2.5,-10.246 -3.758,-18.296 -3.758,-24.175 0,-9.567 3.688,-14.348 11.082,-14.348 3.664,0 6.607,1.234 8.867,3.684 2.24,2.449 4.18,6.441 5.81,11.996 z m 99.87,-36.121 -27.02,0 c -0.15,1.332 -0.21,2.406 -0.21,3.222 0,2.332 0.21,5.133 0.6,8.399 -5.44,-8.774 -13.02,-13.16 -22.77,-13.16 -6.58,0 -11.9,1.886 -15.96,5.691 -4.09,3.781 -6.12,8.52 -6.12,14.234 0,4.246 1.1,8.145 3.3,11.668 2.19,3.547 5.29,6.368 9.33,8.469 4.01,2.102 8.14,3.477 12.34,4.129 4.2,0.68 12.44,1.562 24.71,2.707 0.51,1.68 0.79,2.984 0.79,3.969 0,3.801 -2.65,5.691 -7.97,5.691 -5.23,0 -9.08,-2.566 -11.56,-7.699 l -22.53,4.57 c 5.69,12.813 18.24,19.227 37.63,19.227 9.8,0 17.5,-1.703 23.1,-5.11 5.63,-3.402 8.43,-8.398 8.43,-15.027 0,-2.984 -1.64,-13.484 -4.93,-31.519 -1.23,-6.723 -1.84,-11.176 -1.84,-13.372 0,-1.773 0.23,-3.8 0.68,-6.089 z m -24.13,32.875 c -12.72,-0.957 -19.07,-4.969 -19.07,-12.063 0,-3.894 2.06,-5.832 6.16,-5.832 2.64,0 5.25,1.168 7.89,3.477 2.64,2.332 4.29,7.14 5.02,14.418 z m 96.2,-15.516 -2.87,-17.359 -61.74,0 2.59,15.539 34.46,36.683 -25.99,0 2.8,16.797 59.5,0 -2.27,-13.441 -36.09,-38.219 29.61,0 z m 77.51,-17.359 -27.02,0 c -0.14,1.332 -0.21,2.406 -0.21,3.222 0,2.332 0.21,5.133 0.61,8.399 -5.44,-8.774 -13.02,-13.16 -22.77,-13.16 -6.58,0 -11.9,1.886 -15.96,5.691 -4.09,3.781 -6.12,8.52 -6.12,14.234 0,4.246 1.1,8.145 3.29,11.668 2.19,3.547 5.3,6.368 9.33,8.469 4.02,2.102 8.15,3.477 12.35,4.129 4.2,0.68 12.44,1.562 24.71,2.707 0.51,1.68 0.79,2.984 0.79,3.969 0,3.801 -2.66,5.691 -7.98,5.691 -5.22,0 -9.08,-2.566 -11.55,-7.699 l -22.54,4.57 c 5.7,12.813 18.25,19.227 37.64,19.227 9.8,0 17.5,-1.703 23.1,-5.11 5.62,-3.402 8.42,-8.398 8.42,-15.027 0,-2.984 -1.63,-13.484 -4.92,-31.519 -1.24,-6.723 -1.84,-11.176 -1.84,-13.372 0,-1.773 0.23,-3.8 0.67,-6.089 z m -24.13,32.875 c -12.71,-0.957 -19.06,-4.969 -19.06,-12.063 0,-3.894 2.06,-5.832 6.16,-5.832 2.64,0 5.25,1.168 7.89,3.477 2.63,2.332 4.29,7.14 5.01,14.418 z m 65.48,-8.094 -3.78,-22.539 -18.67,-26.18 -11.02,0 14.99,23.938 -11.39,0 4.15,24.781 25.72,0 z m 97.9,47.32 -12.04,-72.101 -27.09,0 12.04,72.101 -20.02,0 3.62,21.418 67.64,0 -3.57,-21.418 -20.58,0 z m 59.57,23.379 -3.38,-20.301 -26.81,0 3.38,20.301 26.81,0 z m -4.41,-26.461 -11.55,-69.019 -26.81,0 11.53,69.019 26.83,0 z m 14.35,0 23.14,0 -2.73,-16.566 c 4.77,12.433 12.04,18.664 21.82,18.664 0.77,0 1.84,-0.113 3.2,-0.348 l -3.08,-24.64 c -2.36,0.14 -3.95,0.21 -4.71,0.21 -5.7,0 -9.87,-1.332 -12.53,-3.988 -2.69,-2.664 -4.58,-7.375 -5.72,-14.14 l -4.67,-28.211 -26.27,0 11.55,69.019 z m 79.68,-71.117 c -9.64,0 -17.71,2.871 -24.27,8.586 -6.55,5.715 -9.82,13.508 -9.82,23.402 0,11.899 3.8,21.676 11.41,29.328 7.59,7.653 17.18,11.481 28.77,11.481 10.59,0 19.02,-2.988 25.25,-8.985 6.23,-5.996 9.33,-13.39 9.33,-22.187 0,-13.066 -4.01,-23.285 -12.02,-30.613 -8,-7.352 -17.54,-11.012 -28.65,-11.012 z m 1.14,16.801 c 4.86,0 8.17,3.543 9.9,10.66 1.74,7.117 2.61,13.09 2.61,17.875 0,7.301 -2.69,10.941 -8.07,10.941 -4.76,0 -8.08,-3.64 -9.9,-10.918 -1.84,-7.281 -2.75,-13.207 -2.75,-17.828 0,-7.164 2.73,-10.73 8.21,-10.73 z m 73.27,10.078 -3.78,-22.539 -18.67,-26.18 -11.01,0 14.98,23.938 -11.39,0 4.15,24.781 25.72,0 z m 78.28,9.519 -5.72,-34.3 -27.08,0 15.54,93.379 30.84,0 c 7.25,0 12.53,-0.301 15.82,-0.934 3.31,-0.606 6.74,-2.074 10.27,-4.434 3.54,-2.355 6.34,-5.484 8.42,-9.425 2.08,-3.942 3.1,-8.192 3.1,-12.696 0,-8.746 -2.85,-16.211 -8.54,-22.351 -5.69,-6.157 -13.86,-9.239 -24.47,-9.239 l -18.18,0 z m 3.34,20.02 6.46,0 c 9.87,0 14.79,3.289 14.79,9.894 0,5.903 -4.13,8.868 -12.41,8.868 l -5.72,0 -3.12,-18.762 z m 122.05,-24.922 -47.48,0 c -0.23,-1.887 -0.35,-3.289 -0.35,-4.199 0,-3.031 0.95,-5.414 2.89,-7.117 1.94,-1.703 4.39,-2.543 7.35,-2.543 5.6,0 9.57,2.941 11.88,8.824 l 23.24,-3.762 c -3.01,-6.765 -7.89,-12.246 -14.61,-16.426 -6.72,-4.175 -14.18,-6.273 -22.4,-6.273 -10.29,0 -18.66,2.914 -25.06,8.77 -6.42,5.859 -9.61,13.863 -9.61,23.964 0,10.993 3.78,20.418 11.34,28.282 7.56,7.863 17.45,11.781 29.66,11.781 10.35,0 18.57,-3.055 24.7,-9.149 6.14,-6.086 9.2,-14.207 9.2,-24.312 0,-2.262 -0.26,-4.875 -0.75,-7.84 z m -24.94,13.301 c 0.23,1.422 0.35,2.519 0.35,3.289 0,2.449 -0.75,4.598 -2.26,6.441 -1.52,1.821 -3.64,2.731 -6.37,2.731 -2.9,0 -5.51,-1.098 -7.87,-3.313 -2.36,-2.218 -3.8,-5.273 -4.34,-9.148 l 20.49,0 z m 99.47,10.316 -20.3,-4.433 c -1.54,4.476 -5.79,6.718 -12.74,6.718 -4.86,0 -7.28,-1.375 -7.28,-4.105 0,-2.406 2.33,-4.039 7.02,-4.856 9.57,-1.632 16.31,-3.429 20.23,-5.414 3.9,-1.961 6.86,-4.453 8.85,-7.488 1.98,-3.008 2.96,-6.465 2.96,-10.293 0,-6.926 -2.9,-12.762 -8.71,-17.543 -5.8,-4.762 -14.62,-7.14 -26.46,-7.14 -8.79,0 -16.47,1.726 -23,5.156 -6.54,3.453 -10.62,8.609 -12.25,15.492 l 21.56,3.152 c 1.68,-4.945 6.51,-7.422 14.49,-7.422 3.1,0 5.41,0.446 6.91,1.329 1.51,0.89 2.26,1.914 2.26,3.058 0,1.074 -0.49,1.891 -1.5,2.403 -1,0.539 -3.54,1.238 -7.6,2.125 -8.07,1.796 -13.84,3.382 -17.25,4.828 -3.4,1.449 -6.32,3.734 -8.7,6.886 -2.4,3.149 -3.59,6.789 -3.59,10.942 0,7.07 2.8,12.879 8.4,17.453 5.6,4.551 13.18,6.836 22.75,6.836 8.7,0 16.12,-1.68 22.26,-5.016 6.16,-3.336 10.05,-7.562 11.69,-12.668 z m 51.44,-26.277 20.86,-5.133 c -3.73,-8.91 -8.63,-15.094 -14.7,-18.547 -6.06,-3.433 -12.34,-5.156 -18.8,-5.156 -9.54,0 -17.34,3.031 -23.38,9.074 -6.04,6.043 -9.05,13.813 -9.05,23.285 0,10.828 3.57,20.371 10.68,28.676 7.14,8.309 16.59,12.461 28.35,12.461 8.52,0 15.73,-2.566 21.65,-7.699 5.93,-5.133 8.89,-11.738 8.89,-19.809 l -23.37,-2.73 c 0,7.465 -2.55,11.199 -7.61,11.199 -4.34,0 -7.42,-3.055 -9.27,-9.172 -1.82,-6.086 -2.72,-11.43 -2.72,-15.98 0,-6.743 2.56,-10.129 7.67,-10.129 5.02,0 8.61,3.222 10.8,9.66 z m 97.03,-26.738 -27.02,0 c -0.15,1.332 -0.21,2.406 -0.21,3.222 0,2.332 0.21,5.133 0.6,8.399 -5.43,-8.774 -13.02,-13.16 -22.77,-13.16 -6.58,0 -11.9,1.886 -15.96,5.691 -4.08,3.781 -6.11,8.52 -6.11,14.234 0,4.246 1.09,8.145 3.29,11.668 2.19,3.547 5.29,6.368 9.33,8.469 4.01,2.102 8.14,3.477 12.34,4.129 4.2,0.68 12.44,1.562 24.71,2.707 0.52,1.68 0.79,2.984 0.79,3.969 0,3.801 -2.65,5.691 -7.98,5.691 -5.22,0 -9.07,-2.566 -11.54,-7.699 l -22.54,4.57 c 5.69,12.813 18.24,19.227 37.63,19.227 9.8,0 17.5,-1.703 23.1,-5.11 5.62,-3.402 8.42,-8.398 8.42,-15.027 0,-2.984 -1.63,-13.484 -4.92,-31.519 -1.23,-6.723 -1.84,-11.176 -1.84,-13.372 0,-1.773 0.23,-3.8 0.68,-6.089 z m -24.13,32.875 c -12.72,-0.957 -19.06,-4.969 -19.06,-12.063 0,-3.894 2.05,-5.832 6.15,-5.832 2.64,0 5.25,1.168 7.89,3.477 2.64,2.332 4.3,7.14 5.02,14.418 z m 144.15,36.144 -32.97,-69.906 c -4.83,-10.219 -9.8,-16.754 -14.86,-19.555 -5.07,-2.797 -11.11,-4.195 -18.11,-4.195 -3.5,0 -7.14,0.371 -10.92,1.117 l 0.07,18.621 c 5.76,-0.558 10.06,-0.84 12.88,-0.84 7.04,0 10.54,1.868 10.54,5.575 0,0.957 -0.25,2.476 -0.81,4.503 l -16.52,64.68 27.49,0 5.88,-27.672 c 1.05,-4.691 1.6,-7.652 1.7,-8.867 0.47,0.863 0.98,2.008 1.59,3.477 0.46,1.261 1.02,2.59 1.72,3.945 l 13.79,29.117 18.53,0 z m 125.83,24.36 -15.54,-93.379 -20.76,0 -17.81,35.886 c -4.82,9.801 -7.93,17.571 -9.26,23.309 0.1,-1.398 0.14,-2.473 0.14,-3.266 0,-2.566 -0.35,-5.949 -1.02,-10.148 l -7.66,-45.781 -22.72,0 15.54,93.379 25.15,0 10.24,-21.606 c 7.09,-14.957 11.71,-26.016 13.84,-33.133 -0.14,1.844 -0.21,3.242 -0.21,4.129 0,2.637 0.6,7.699 1.84,15.164 l 5.93,35.446 22.3,0 z m 70.51,-93.379 -27.01,0 c -0.15,1.332 -0.22,2.406 -0.22,3.222 0,2.332 0.22,5.133 0.61,8.399 -5.43,-8.774 -13.02,-13.16 -22.77,-13.16 -6.58,0 -11.9,1.886 -15.96,5.691 -4.09,3.781 -6.11,8.52 -6.11,14.234 0,4.246 1.09,8.145 3.29,11.668 2.19,3.547 5.29,6.368 9.33,8.469 4.01,2.102 8.14,3.477 12.34,4.129 4.2,0.68 12.44,1.562 24.71,2.707 0.52,1.68 0.79,2.984 0.79,3.969 0,3.801 -2.66,5.691 -7.98,5.691 -5.22,0 -9.07,-2.566 -11.54,-7.699 l -22.55,4.57 c 5.7,12.813 18.25,19.227 37.64,19.227 9.8,0 17.5,-1.703 23.1,-5.11 5.62,-3.402 8.42,-8.398 8.42,-15.027 0,-2.984 -1.63,-13.484 -4.92,-31.519 -1.24,-6.723 -1.84,-11.176 -1.84,-13.372 0,-1.773 0.23,-3.8 0.67,-6.089 z m -24.12,32.875 c -12.72,-0.957 -19.07,-4.969 -19.07,-12.063 0,-3.894 2.06,-5.832 6.16,-5.832 2.64,0 5.25,1.168 7.89,3.477 2.64,2.332 4.29,7.14 5.02,14.418 z m 88.29,36.144 -3.01,-17.64 -12.48,0 -4.18,-24.547 c -0.42,-2.403 -0.63,-3.918 -0.63,-4.571 0,-3.363 2.14,-5.039 6.48,-5.039 1.87,0 4.07,0.278 6.54,0.836 l -3.01,-18.058 c -4.92,-1.024 -9.66,-1.539 -14.19,-1.539 -5.62,0 -9.77,0.699 -12.5,2.125 -2.71,1.398 -4.93,3.406 -6.65,5.992 -1.71,2.594 -2.57,6.023 -2.57,10.246 0,1.773 0.42,5.109 1.24,9.965 l 4.13,24.59 -9.57,0 2.94,17.64 9.68,0 3.69,20.367 25.17,0.493 -3.56,-20.86 12.48,0 z m 77.63,0 -11.46,-69.019 -24.92,0 2.19,12.855 c -5.5,-9.773 -13.15,-14.676 -22.93,-14.676 -5.88,0 -10.5,1.59 -13.84,4.785 -3.33,3.196 -5.01,7.118 -5.01,11.805 0,2.055 0.46,5.738 1.37,11.082 l 7.17,43.168 26.55,0 -6.63,-39.5 c -0.61,-3.687 -0.89,-5.93 -0.89,-6.746 0,-3.43 1.57,-5.133 4.74,-5.133 5.98,0 9.94,5.742 11.86,17.196 l 5.62,34.183 26.18,0 z m 14.46,0 23.15,0 -2.73,-16.566 c 4.76,12.433 12.04,18.664 21.82,18.664 0.77,0 1.84,-0.113 3.19,-0.348 l -3.08,-24.64 c -2.36,0.14 -3.94,0.21 -4.71,0.21 -5.69,0 -9.87,-1.332 -12.53,-3.988 -2.68,-2.664 -4.57,-7.375 -5.72,-14.14 l -4.66,-28.211 -26.27,0 11.54,69.019 z m 113.45,-69.019 -27.02,0 c -0.14,1.332 -0.21,2.406 -0.21,3.222 0,2.332 0.21,5.133 0.61,8.399 -5.44,-8.774 -13.02,-13.16 -22.78,-13.16 -6.57,0 -11.89,1.886 -15.95,5.691 -4.09,3.781 -6.12,8.52 -6.12,14.234 0,4.246 1.1,8.145 3.29,11.668 2.19,3.547 5.3,6.368 9.33,8.469 4.02,2.102 8.15,3.477 12.34,4.129 4.21,0.68 12.45,1.562 24.72,2.707 0.51,1.68 0.79,2.984 0.79,3.969 0,3.801 -2.66,5.691 -7.98,5.691 -5.23,0 -9.08,-2.566 -11.55,-7.699 l -22.54,4.57 c 5.69,12.813 18.25,19.227 37.63,19.227 9.81,0 17.51,-1.703 23.11,-5.11 5.62,-3.402 8.42,-8.398 8.42,-15.027 0,-2.984 -1.63,-13.484 -4.92,-31.519 -1.24,-6.723 -1.85,-11.176 -1.85,-13.372 0,-1.773 0.24,-3.8 0.68,-6.089 z m -24.13,32.875 c -12.72,-0.957 -19.06,-4.969 -19.06,-12.063 0,-3.894 2.06,-5.832 6.16,-5.832 2.64,0 5.25,1.168 7.89,3.477 2.63,2.332 4.29,7.14 5.01,14.418 z m 78.31,60.504 -15.54,-93.379 -26.27,0 15.53,93.379 26.28,0 z m 74.76,-63.981 -47.48,0 c -0.24,-1.887 -0.35,-3.289 -0.35,-4.199 0,-3.031 0.95,-5.414 2.89,-7.117 1.94,-1.703 4.38,-2.543 7.35,-2.543 5.6,0 9.57,2.941 11.87,8.824 l 23.25,-3.762 c -3.01,-6.765 -7.89,-12.246 -14.61,-16.426 -6.72,-4.175 -14.19,-6.273 -22.4,-6.273 -10.29,0 -18.67,2.914 -25.06,8.77 -6.42,5.859 -9.61,13.863 -9.61,23.964 0,10.993 3.77,20.418 11.33,28.282 7.57,7.863 17.46,11.781 29.66,11.781 10.36,0 18.58,-3.055 24.71,-9.149 6.14,-6.086 9.2,-14.207 9.2,-24.312 0,-2.262 -0.26,-4.875 -0.75,-7.84 z m -24.95,13.301 c 0.24,1.422 0.36,2.519 0.36,3.289 0,2.449 -0.75,4.598 -2.27,6.441 -1.52,1.821 -3.64,2.731 -6.37,2.731 -2.89,0 -5.5,-1.098 -7.86,-3.313 -2.36,-2.218 -3.81,-5.273 -4.34,-9.148 l 20.48,0 z m 90.45,-25.34 -2.88,-17.359 -61.73,0 2.59,15.539 34.46,36.683 -26,0 2.81,16.797 59.5,0 -2.27,-13.441 -36.09,-38.219 29.61,0 z m 77.51,-17.359 -27.02,0 c -0.14,1.332 -0.21,2.406 -0.21,3.222 0,2.332 0.21,5.133 0.61,8.399 -5.44,-8.774 -13.03,-13.16 -22.78,-13.16 -6.58,0 -11.9,1.886 -15.96,5.691 -4.08,3.781 -6.11,8.52 -6.11,14.234 0,4.246 1.1,8.145 3.29,11.668 2.19,3.547 5.29,6.368 9.33,8.469 4.02,2.102 8.14,3.477 12.34,4.129 4.2,0.68 12.44,1.562 24.71,2.707 0.52,1.68 0.8,2.984 0.8,3.969 0,3.801 -2.66,5.691 -7.98,5.691 -5.23,0 -9.08,-2.566 -11.55,-7.699 l -22.54,4.57 c 5.69,12.813 18.24,19.227 37.63,19.227 9.8,0 17.5,-1.703 23.1,-5.11 5.63,-3.402 8.43,-8.398 8.43,-15.027 0,-2.984 -1.64,-13.484 -4.92,-31.519 -1.24,-6.723 -1.85,-11.176 -1.85,-13.372 0,-1.773 0.23,-3.8 0.68,-6.089 z m -24.13,32.875 c -12.72,-0.957 -19.06,-4.969 -19.06,-12.063 0,-3.894 2.05,-5.832 6.16,-5.832 2.64,0 5.25,1.168 7.89,3.477 2.63,2.332 4.29,7.14 5.01,14.418" /></g></g></svg>