<svg xmlns="http://www.w3.org/2000/svg" viewBox="0 0 363.75 161.74"><defs><style>.cls-1{fill:#fff;}</style></defs><title>Recurso 1</title><g id="Capa_2" data-name="Capa 2"><g id="svg2"><g id="g10"><g id="g12"><path id="path14" class="cls-1" d="M110.37,161.66c-1.44.26-2.82-.22-4.22-.37a107,107,0,0,1-15.48-2.81,20.18,20.18,0,0,1-10.22-6,59.67,59.67,0,0,0-9.22-7.72c-7.56-5.57-12.95-12.88-16.93-21.29-1.65-3.49-3.27-7-4.87-10.51a15.11,15.11,0,0,0-3.86-5.29,16.74,16.74,0,0,1-4-5.94,38.25,38.25,0,0,0-4.16-7.64A8.39,8.39,0,0,1,36,90.77c-.7-3-2.29-5.63-3.57-8.39A5.43,5.43,0,0,0,31.24,81q-3.81-3.81-7.65-7.59a1,1,0,0,0-.7-.87c-1.81-.77-3.51-1.77-5.64-1.58-1.84.16-2.88,1.25-2.42,3.06a24.58,24.58,0,0,1,.61,8.86,21.19,21.19,0,0,0,.07,4.25c.12,1.24.84,2.47.25,3.75a5.19,5.19,0,0,0-.47,1.95,9.08,9.08,0,0,1-.92,3.35,19.28,19.28,0,0,0-1.75,6.31,28.45,28.45,0,0,0,2.37,14,1.67,1.67,0,0,1,0,1.6,4.41,4.41,0,0,0-.33,3.21c1.37,5.43,1.35,11,2,16.55.32,2.66-.37,5.31,0,8,.08.61.33,1.25-.1,1.86a7.15,7.15,0,0,0-1.16,3.16c-.14.89-.55,1.4-1.48,1.44-.72.16-.71.83-.87,1.34-.57,1.9-1,3.84-1.69,5.7-.3.83-.63.79-1.16.3a15.71,15.71,0,0,1-2.49-3c-.86-1.3-1.68-2.64-2.53-3.95a9,9,0,0,0-2.87-3A2.72,2.72,0,0,1,.91,147q.19-4,.47-8a5.89,5.89,0,0,1,.41-1.75,13.4,13.4,0,0,0,1-6.15,47.13,47.13,0,0,1,1-11.87A18.11,18.11,0,0,0,4,114.33a25.55,25.55,0,0,1-.09-2.56,9.24,9.24,0,0,0-.65-4.47,6.67,6.67,0,0,1-.51-2.81C2.61,101.21,2.28,98,2,94.7a21.77,21.77,0,0,1,.15-5.11,42.82,42.82,0,0,0-.05-7.35,151.5,151.5,0,0,1,.09-17,5.69,5.69,0,0,1,.21-1.15,5.28,5.28,0,0,0-.49-4.85,6.72,6.72,0,0,1-.73-3.41C.76,49.75,0,43.63.07,37.47a37.49,37.49,0,0,1,1.16-11,5,5,0,0,0-.78-4.56c-.23-.32-.63-.7-.36-1.13s.72-.2,1.09-.2c1.9,0,2.31-.51,2-2.63a56.33,56.33,0,0,1-.88-6.65C2.15,8.5,2,5.7,2,2.89c0-1.24.37-1.54,1.49-1.57A1,1,0,0,1,4.69,2.43,4.23,4.23,0,0,0,6.61,5.93a1.73,1.73,0,0,1,.7,1.38c.34,3.07.69,6.15,1,9.22.47,4.49.89,9,1.38,13.47.29,2.69.41,5.39.48,8.09q.24,9.34.46,18.68c0,.25,0,.5,0,.75s.1.55.33.63.35-.28.45-.47a19.32,19.32,0,0,0,2.33-9.48c-.12-9-.21-18.08.13-27.11.1-2.77.27-5.54.41-8.31.06-1.29,0-1.36-1.16-1.11-1,.2-.67-.59-.7-.91-.2-2-.32-4-.46-6a2.74,2.74,0,0,0,0-.64c-.66-2,.71-3.22,2.81-3.16,3.29.09,4.61,1.53,4.39,4.39-.26,3.4-.37,6.82-.53,10.23,0,.31-.16.68.2.87s.56-.19.81-.35c4.24-2.8,5.71-7,5.81-11.81.06-2.81.09-2.87,2.84-3.29,3.17-.49,5.2,1.74,4.37,4.83a73.33,73.33,0,0,0-2.42,10.68c-.2,1.73.1,3.49-.32,5.21a.66.66,0,0,0,.44.86c.41.1.62-.29.74-.6.48-1.18.93-2.38,1.39-3.57s1-2.5,1.46-3.76a2.49,2.49,0,0,1,2.59-1.8c.6,0,1.21,0,1.81,0,1.37.06,1.74.45,1.54,1.79-.42,2.85-.84,5.69-1.35,8.52-1.48,8.17-3.41,16.25-4.74,24.45,0,.28-.05.57-.1.85-.1.59-.15,1.17.48,1.49s1.05-.13,1.44-.57c2.4-2.72,4.87-5.38,7.22-8.16a247.71,247.71,0,0,1,28.3-28.4A21.34,21.34,0,0,0,76.46,6.4a8,8,0,0,1,3.8-3.47,17.29,17.29,0,0,0,3.37-2A4.85,4.85,0,0,1,87.69.12a21,21,0,0,1,3.5.9A2.16,2.16,0,0,1,92,4.83C86.08,10.56,80.11,16.26,74.38,22.2c-.15.16-.52.22-.33.54s.47.08.72,0c2.22-1,3.83-2.8,5.67-4.3,5.79-4.74,11.28-9.8,16.68-15a8.42,8.42,0,0,1,7.61-2.11A2.36,2.36,0,0,1,106.88,3a2.37,2.37,0,0,1-1.06,2.49q-7.51,6.49-15,13A185.08,185.08,0,0,0,76.94,31.12c-.15.16-.5.26-.28.58s.44,0,.62-.08Q88.65,24.7,100,17.77c3.19-1.93,6.41-3.8,9.63-5.68.89-.52,1.14-.39,1.42.58a2.34,2.34,0,0,1-.44,2.31,24.78,24.78,0,0,0-1.88,2.82,17.9,17.9,0,0,1-4.94,4.65c-10.28,7.2-20.4,14.63-30,22.76-7.84,6.67-15.16,13.9-22.5,21.1-1,1-1,1.37-.18,2.6q5.08,7.44,10.19,14.86a4.5,4.5,0,0,1,.87,1.57,3.66,3.66,0,0,1-.65.33,6.42,6.42,0,0,0-5,5.81c-.18,1.37-.49,2.72-.78,4.08-.66,3.14-.88,6.26.36,9.34a2.36,2.36,0,0,1-.21,2.45c-1.34,1.6-1.22,3.42-.93,5.27.1.61,0,1.25.5,1.8a17.8,17.8,0,0,1,4.77,8.73,2.55,2.55,0,0,0,.31.67,28.59,28.59,0,0,0,4,5.12,3.47,3.47,0,0,0,1.67.92c.68.21,1.13,0,1.11-.78a10.15,10.15,0,0,1,2.75,3.31,17.28,17.28,0,0,0,5.37,6.44c2.07,1.57,4.21,2.9,7,2a3.92,3.92,0,0,0,1.14,1.51,17,17,0,0,1,3.79,5,9.89,9.89,0,0,0,5.68,5.18,2.93,2.93,0,0,1,1.64,1.41A3.73,3.73,0,0,0,98.26,156a2.09,2.09,0,0,1,.92.21c2.56,1.15,5.15,2.22,7.81,3.14A6.13,6.13,0,0,1,110.37,161.66ZM6.24,95.18h0c0,1.06,0,1.91,0,2.77,0,.61.37.57.77.28a.88.88,0,0,0,.34-.91A7.75,7.75,0,0,1,7.85,94a12,12,0,0,0,.88-5c-.29-4.61-.43-9.23-.59-13.84a20.67,20.67,0,0,0-1.53-6.77c-.17-.43-.4-.88-1-.65A.87.87,0,0,0,5,68.93,12.38,12.38,0,0,1,5.38,73c-.08,4.76,0,9.52.37,14.28C6,90,6.09,92.69,6.24,95.18Zm-.43,25.64h0a31,31,0,0,0,.86,18.81,19.25,19.25,0,0,0,.69-5.7c-.23-3.65-.31-7.3-.33-11a2.18,2.18,0,0,0-1.22-2.16"/><path id="path16" class="cls-1" d="M139.43,46.42c-1.66,4.71-3.25,9.29-4.9,13.86-3.63,10.07-6.9,20.27-11.07,30.14-2.45,5.8-5.09,11.5-9.07,16.45a28.05,28.05,0,0,1-17,10.19c-.88.17-1.22-.06-1.43-.94-.84-3.63-1.72-7.25-2.67-10.85-.21-.81,0-1,.71-1.18a19.59,19.59,0,0,0,11.85-8.29,4.42,4.42,0,0,0,.36-4.42q-9-22.25-17.84-44.52c0-.1-.07-.19-.14-.43h1c5,0,10,0,14.95,0a1,1,0,0,1,1.22.92c3.08,10.47,6.58,20.83,9.22,31.43.05.2.14.38.27.77A27.26,27.26,0,0,0,116,75.4q3.51-14.09,7-28.19c.12-.48.19-.81.84-.81,5.16,0,10.32,0,15.63,0"/><path id="path18" class="cls-1" d="M210,75.6c-4.87,0-9.75,0-14.62,0-.88,0-1,.19-.86,1.06a9,9,0,0,0,4.83,6.28,16.6,16.6,0,0,0,7.46,1.92,41.3,41.3,0,0,0,13.89-1.74c.75-.23.88,0,1,.64.51,2.83,1.09,5.64,1.63,8.47.1.49.32,1-.49,1.25-9,3-18.22,4-27.43,1.13-8.87-2.77-13.73-9.19-15.14-18.27a28.64,28.64,0,0,1,3.88-20.26c4.29-6.84,10.66-10.21,18.62-10.69a23,23,0,0,1,11.92,2.14c5.47,2.74,8.6,7.36,10.27,13.09a34.09,34.09,0,0,1,.88,14c-.1.75-.35,1-1.12,1-4.91,0-9.82,0-14.73,0Zm-6.78-10.39h6.5c2.62,0,2.67,0,2.12-2.63-.63-3-2-5.52-5.17-6.64a8.73,8.73,0,0,0-10.44,3.53,13.76,13.76,0,0,0-1.86,4.83c-.13.62-.07.94.74.92,2.7-.06,5.4,0,8.1,0"/><path id="path20" class="cls-1" d="M175.56,59.8a18.11,18.11,0,0,0-7.06-.07c-4.86,1.11-7.61,4.68-7.66,10.13-.07,6.79,0,13.59,0,20.38,0,1.39,0,2.78,0,4.16,0,.56-.15.71-.71.71-4.59,0-9.18,0-13.77,0-.84,0-.7-.45-.7-.93q0-12.7,0-25.4c0-7.11,0-14.23-.4-21.33,0-.81.11-1.08,1-1.07q5.55.08,11.1,0c.87,0,1.06.28,1.09,1.06.1,2.63.26,5.25.4,7.91.63-.08.57-.57.7-.88,2.18-4.92,5.78-8.09,11.17-9a17,17,0,0,1,4.15,0c.32,0,.71,0,.71.57,0,4.58,0,9.17,0,13.8"/><path id="path22" class="cls-1" d="M276.6,53.25c-.21.73-.73.74-1.35.64a36.42,36.42,0,0,0-19.52,2.32A12.45,12.45,0,0,0,250,61c-1.82,2.63-3.39,5.4-5.1,8.09-1.15,1.81-1.8,3.85-2.77,5.74a79.5,79.5,0,0,1-4.76,7.68.83.83,0,0,1-1,.42c-.44-.16-.5-.56-.5-1,0-1,0-1.92,0-2.88a1.44,1.44,0,0,0-.71-1.44c0-6.61,0-13.23-.08-19.84,0-3.45-.21-6.9-.36-10.34,0-.74.06-1,.93-1,3.66.06,7.33,0,11,0,.66,0,.89.16.95.85.15,1.9.4,3.79.62,5.71.49,0,.59-.44.77-.7,5.72-8,17.32-8.64,23.43-4.19a13,13,0,0,1,4.19,5.18ZM237.93,65.58h0c-.12,1.25.29,1.31.9.93a9.41,9.41,0,0,0,.93-.7c3.26-2.66,5.38-6.15,7.2-9.86.16-.33.27-.66-.2-.73a2.33,2.33,0,0,0-1.85.16A8.55,8.55,0,0,0,241.79,59a11,11,0,0,1-2.6,4,5.08,5.08,0,0,0-1.27,2.56"/><path id="path24" class="cls-1" d="M110.37,161.66a6.13,6.13,0,0,0-3.38-2.28c-2.66-.92-5.25-2-7.81-3.14a2.09,2.09,0,0,0-.92-.21,3.73,3.73,0,0,1-3.56-2.11,2.93,2.93,0,0,0-1.64-1.41,9.89,9.89,0,0,1-5.68-5.18,17,17,0,0,0-3.79-5,3.92,3.92,0,0,1-1.14-1.51.94.94,0,0,0-.62-1.1,7.35,7.35,0,0,1-1.17-.72c-2.11-1.58-3.78-3.63-5.75-5.37a44.13,44.13,0,0,1-8-9.6,41.22,41.22,0,0,0-4.73-5.85c-.33-.35-.73-.54-1.13-.27s-.16.67,0,1,.33.9.65,1.07a4.26,4.26,0,0,1,1.64,2.26c1.17,2.38,3,4.39,4,6.84,0,.81-.42,1-1.11.78a3.47,3.47,0,0,1-1.67-.92,28.59,28.59,0,0,1-4-5.12,2.55,2.55,0,0,1-.31-.67,17.8,17.8,0,0,0-4.77-8.73c-.51-.55-.4-1.2-.5-1.8-.29-1.85-.42-3.67.93-5.27a2.36,2.36,0,0,0,.21-2.45c-1.23-3.08-1-6.19-.36-9.34.28-1.36.6-2.71.78-4.08a6.42,6.42,0,0,1,5-5.81,3.66,3.66,0,0,0,.65-.33,3.83,3.83,0,0,1,1.09,1.29c5.85,8.79,11.44,17.76,17.85,26.17,2.63,3.45,5.14,7,8.4,9.91a36.38,36.38,0,0,0,11.4,6.76c4.87,1.88,9.54,4.26,14.52,5.87A37.58,37.58,0,0,0,129,137.27c2.52-.13,5.05,0,7.58-.09,5-.16,10.06-.74,15.08-1.27a15.59,15.59,0,0,0,2.43-.78c.56-.15,1.17-.29,1.5.37a1.16,1.16,0,0,1-.52,1.56,11.31,11.31,0,0,1-4.79,2.23A5.28,5.28,0,0,0,147,141a3.9,3.9,0,0,1-2.79,1.33c-3.86.33-7.72.78-11.56-.25a5.36,5.36,0,0,0-1.49-.05c-.7,0-1.67-.25-1,1.11.29.59-.37.43-.65.42a33.38,33.38,0,0,1-5.27-.77c-4.38-.74-8.8-1.14-13.22-1.59a2.07,2.07,0,0,0-.74,0,13.46,13.46,0,0,1-7.85-.57c-1.49-.48-3-.89-4.51-1.28a2.2,2.2,0,0,0-2.54,1.1,1.5,1.5,0,0,0,.26,2.1c2.49,2.29,4.91,4.65,7.44,6.89a15.34,15.34,0,0,0,8.38,3.4c5.21.72,10.31,2,15.48,3a59.17,59.17,0,0,0,11.84,1.36,57.16,57.16,0,0,0,9.62-1.16,3.17,3.17,0,0,1,2.47.34c.62.41.82.92.26,1.49-1,1-2,1.95-3,2.88a1.76,1.76,0,0,1-1.7.44c-4.75-1.42-9.53-.58-14.27-.12a164.88,164.88,0,0,1-18,.61ZM61.52,96.2h0a.43.43,0,0,0-.49.44c-.06.46-.17.91-.2,1.37-.16,2,.33,3.57,2.43,4.33a5.37,5.37,0,0,1,2.35,2c1.76,2.36,4.5,3.73,6.12,6.21a.55.55,0,0,0,.16.14c.31.21.64.35,1,.07a.82.82,0,0,0,.24-1,2.45,2.45,0,0,0-.63-.84,40.39,40.39,0,0,1-4.6-5.44C66.22,100.93,63.79,99,62,96.55a.72.72,0,0,0-.51-.35"/><path id="path26" class="cls-1" d="M276.6,53.25c.63,0,.72-.61,1-1,3.16-3.58,6.87-6.35,11.74-6.88,5.37-.58,10.49.16,14.42,4.44a19.34,19.34,0,0,1,4.38,9,35.5,35.5,0,0,1,.65,8.21q0,13.5,0,27c0,.9-.26,1.11-1.13,1.1q-6.3-.07-12.6,0c-.85,0-1.06-.23-1.05-1.07,0-8.07.09-16.15,0-24.23a21.06,21.06,0,0,0-1.23-8.17,6.22,6.22,0,0,0-6.53-4c-4.11.29-6.57,4.4-6.73,7.79-.45,9.56-.08,19.12-.18,28.68,0,.73-.17,1-.94,1-4.27,0-8.54,0-12.81,0-.9,0-1-.31-1-1.1,0-8.36.08-16.72,0-25.08a17.93,17.93,0,0,0-1.24-7.53,6.49,6.49,0,0,0-6.3-3.75c-4,.2-6.85,4.79-7,8-.37,9.49-.05,19-.16,28.46,0,.72-.15,1-.93,1-4.3,0-8.61,0-12.92,0-.54,0-.93,0-.92-.75,0-5.58,0-11.17,0-16.76a1.44,1.44,0,0,1,.71,1.44c0,1,0,1.92,0,2.88,0,.41.06.81.5,1a.83.83,0,0,0,1-.42,79.5,79.5,0,0,0,4.76-7.68c1-1.89,1.63-3.94,2.77-5.74,1.71-2.69,3.29-5.46,5.1-8.09a12.45,12.45,0,0,1,5.71-4.75,36.42,36.42,0,0,1,19.52-2.32c.63.1,1.14.09,1.35-.64"/><path id="path28" class="cls-1" d="M347.87,90.09c-1,1-1.82,1.84-2.77,2.58-5.8,4.47-16.25,5-22.12-.28a14.71,14.71,0,0,1-4.87-13.26c.81-7.2,5.27-11.4,11.67-13.9a43.69,43.69,0,0,1,15.58-2.58c1.32,0,1.3,0,1.15-1.3a5.62,5.62,0,0,0-4.61-5.09c-4.08-1-8.11-.46-12.08.71a21.11,21.11,0,0,0-4.9,2.07c-.55.33-.73.15-.88-.37-.78-2.77-1.56-5.54-2.38-8.29-.21-.7.14-.94.67-1.2a36.89,36.89,0,0,1,11.29-3.34,38.1,38.1,0,0,1,14.09.32A17.06,17.06,0,0,1,361.34,60.9a39.47,39.47,0,0,1,.44,5.95c0,5.83,0,11.67,0,17.5a70.7,70.7,0,0,0,.6,10c.07.52,0,.77-.63.77q-6.13,0-12.27,0c-.57,0-.7-.24-.78-.74-.23-1.38-.52-2.76-.83-4.29ZM347,75.67h0a20.37,20.37,0,0,1,0-2.42c.13-1-.32-1.28-1.25-1.18s-2.06.09-3.08.21c-2.55.3-5.07.74-7.21,2.31A6.17,6.17,0,0,0,333,80.87a5,5,0,0,0,3.82,4.37,8.11,8.11,0,0,0,10.08-6.35,23.62,23.62,0,0,0,.11-3.22"/><path id="path30" class="cls-1" d="M13.92,152.26c.93,0,1.33-.55,1.48-1.44a7.15,7.15,0,0,1,1.16-3.16c.44-.6.19-1.25.1-1.86-.36-2.66.33-5.32,0-8-.66-5.52-.64-11.12-2-16.55a4.41,4.41,0,0,1,.33-3.21,1.67,1.67,0,0,0,0-1.6,28.45,28.45,0,0,1-2.37-14,19.28,19.28,0,0,1,1.75-6.31,9.08,9.08,0,0,0,.92-3.35,5.19,5.19,0,0,1,.47-1.95c.59-1.28-.13-2.5-.25-3.75a21.19,21.19,0,0,1-.07-4.25A24.58,24.58,0,0,0,14.84,74c-.46-1.81.57-2.9,2.42-3.06,2.13-.19,3.83.81,5.64,1.58a1,1,0,0,1,.7.87c-.73,1.58-.23,3.22-.2,4.83.16,8.64,2.15,17.14,2,25.8,0,1.14,0,2.28,0,3.41a2.17,2.17,0,0,0,.33,1.43c.39,0,.38-.38.46-.61.14-.4.19-.83.31-1.24.21-.73.26-1.76,1.2-1.79s1.5.76,1.8,1.61a20.77,20.77,0,0,1,1,6.29c.08,2.38,0,4.77,0,7.15a3,3,0,0,1-.25,1.13c-.83,2.08-.51,3.47,1.22,4.8a1.91,1.91,0,0,1,.82,1.71c0,2.41-.74,4.69-1.16,7q-.81,4.45-1.85,8.86c-.56,2.38-1.84,2.77-3.75,1.23-.31-.25-.59-.57-1-.36s-.32.51-.36.83c-.38,3.32-.73,6.64-1.16,9.94a13.79,13.79,0,0,0,.57,4.83c.28,1.26.17,1.42-1.14,1.43s-2.35,0-3.52,0a5.16,5.16,0,0,1-5.12-6.09c.12-.84.3-1.68.46-2.51C14.31,152.74,14.44,152.38,13.92,152.26Zm5-49.94h0c-.27,1.71-.4,3.16-.75,4.56a5.33,5.33,0,0,0,1,4.89c.28.36.54.82,1.1.63s.49-.74.44-1.18c-.26-2-.5-4.08-.85-6.1a5.56,5.56,0,0,0-1-2.8"/><path id="path32" class="cls-1" d="M237.93,65.58A5.08,5.08,0,0,1,239.2,63a11,11,0,0,0,2.6-4,8.55,8.55,0,0,1,3.12-3.68,2.33,2.33,0,0,1,1.85-.16c.47.07.36.41.2.73-1.82,3.71-3.94,7.2-7.2,9.86a9.41,9.41,0,0,1-.93.7c-.62.38-1,.33-.9-.93"/><path id="path34" class="cls-1" d="M125.86,119.79l3.13.4a6.62,6.62,0,0,1-1.88,3.14,4.75,4.75,0,0,1-3.35,1.22,4.37,4.37,0,0,1-3.49-1.49,5.63,5.63,0,0,1-1.3-3.83,7.64,7.64,0,0,1,1.6-4.78,5.24,5.24,0,0,1,4.39-2.08,4.34,4.34,0,0,1,4.58,4.54l-3.29.24a3.35,3.35,0,0,0-.33-1.6,1.13,1.13,0,0,0-1.06-.53q-1.29,0-1.76,1.92a13.62,13.62,0,0,0-.47,3q0,1.79,1.39,1.79a1.44,1.44,0,0,0,1.11-.46A3.86,3.86,0,0,0,125.86,119.79Zm12.48,4.52H135a3.69,3.69,0,0,1,0-.4,9.1,9.1,0,0,1,.07-1,3.18,3.18,0,0,1-2.85,1.65,2.8,2.8,0,0,1-2-.71,2.32,2.32,0,0,1-.76-1.78,2.7,2.7,0,0,1,.41-1.46,2.91,2.91,0,0,1,1.17-1.06,5,5,0,0,1,1.54-.52c.52-.08,1.55-.2,3.09-.34a1.84,1.84,0,0,0,.1-.5q0-.71-1-.71a1.52,1.52,0,0,0-1.45,1l-2.82-.57q1.07-2.4,4.7-2.4a5.55,5.55,0,0,1,2.89.64,2.06,2.06,0,0,1,1.05,1.88q0,.56-.62,3.94a11.8,11.8,0,0,0-.23,1.67A4,4,0,0,0,138.35,124.3Zm-3-4.11q-2.38.18-2.38,1.51c0,.49.26.73.77.73a1.51,1.51,0,0,0,1-.43,2.81,2.81,0,0,0,.63-1.8Zm12,1.94L147,124.3h-7.72l.32-1.94,4.31-4.59h-3.25l.35-2.1h7.44l-.28,1.68-4.51,4.78ZM157,124.3h-3.38a4,4,0,0,1,0-.4,8.86,8.86,0,0,1,.08-1,3.18,3.18,0,0,1-2.85,1.65,2.8,2.8,0,0,1-2-.71,2.32,2.32,0,0,1-.76-1.78,2.71,2.71,0,0,1,.41-1.46,2.92,2.92,0,0,1,1.17-1.06,5,5,0,0,1,1.54-.52c.52-.08,1.55-.2,3.09-.34a1.84,1.84,0,0,0,.1-.5q0-.71-1-.71a1.52,1.52,0,0,0-1.44,1l-2.82-.57q1.07-2.4,4.71-2.4a5.55,5.55,0,0,1,2.89.64,2.06,2.06,0,0,1,1.05,1.88,39.69,39.69,0,0,1-.62,3.94,11.6,11.6,0,0,0-.23,1.67A4.09,4.09,0,0,0,157,124.3Zm-3-4.11q-2.38.18-2.38,1.51c0,.49.26.73.77.73a1.51,1.51,0,0,0,1-.43A2.81,2.81,0,0,0,154,120.19Zm8.18,1-.47,2.82-2.33,3.27H158l1.87-3h-1.42l.52-3.1h3.22Zm12.24-5.92-1.51,9h-3.39l1.51-9h-2.5l.45-2.68h8.46l-.45,2.68h-2.57Zm7.45-2.92-.42,2.54h-3.35l.42-2.54Zm-.55,3.31-1.44,8.63h-3.35l1.44-8.63h3.35Zm1.79,0H186l-.34,2.07q.89-2.33,2.73-2.33a2.49,2.49,0,0,1,.4,0l-.38,3.08-.59,0a2.14,2.14,0,0,0-1.57.5,3.25,3.25,0,0,0-.71,1.77L185,124.3H181.7Zm10,8.89a4.45,4.45,0,0,1-3-1.07,3.68,3.68,0,0,1-1.23-2.93,5,5,0,0,1,1.43-3.67,4.85,4.85,0,0,1,3.6-1.44,4.36,4.36,0,0,1,3.16,1.12,3.69,3.69,0,0,1,1.17,2.77,4.93,4.93,0,0,1-1.5,3.83A5.11,5.11,0,0,1,193.1,124.57Zm.14-2.1q.91,0,1.24-1.33a9.74,9.74,0,0,0,.33-2.23q0-1.37-1-1.37c-.6,0-1,.46-1.24,1.36a9.49,9.49,0,0,0-.34,2.23C192.22,122,192.56,122.47,193.24,122.47Zm9.16-1.26-.47,2.82-2.33,3.27h-1.38l1.87-3h-1.42l.52-3.1h3.22Zm9.79-1.19-.71,4.29h-3.38L210,112.63h3.85a11.7,11.7,0,0,1,2,.12,3.45,3.45,0,0,1,1.28.55,3.15,3.15,0,0,1,1.05,1.18,3.35,3.35,0,0,1,.39,1.59,3.82,3.82,0,0,1-4.13,3.95Zm.42-2.5h.81q1.85,0,1.85-1.24t-1.55-1.11H213Zm15.26,3.12h-5.93a4.84,4.84,0,0,0,0,.52,1.12,1.12,0,0,0,.36.89,1.34,1.34,0,0,0,.92.32,1.52,1.52,0,0,0,1.49-1.1l2.9.47a4.59,4.59,0,0,1-1.83,2.05,5.2,5.2,0,0,1-2.8.78,4.46,4.46,0,0,1-3.13-1.1,3.85,3.85,0,0,1-1.2-3,4.94,4.94,0,0,1,5.13-5,4.18,4.18,0,0,1,3.09,1.14,4.09,4.09,0,0,1,1.15,3,6.12,6.12,0,0,1-.09,1ZM224.74,119a2.79,2.79,0,0,0,0-.41,1.23,1.23,0,0,0-.28-.81,1,1,0,0,0-.8-.34,1.4,1.4,0,0,0-1,.41,1.86,1.86,0,0,0-.54,1.14Zm12.43-1.29-2.54.55q-.29-.84-1.59-.84c-.61,0-.91.17-.91.51s.29.5.88.61a9.81,9.81,0,0,1,2.53.68,2.77,2.77,0,0,1,1.11.94,2.29,2.29,0,0,1,.37,1.29,2.74,2.74,0,0,1-1.09,2.19,5.14,5.14,0,0,1-3.31.89,6.1,6.1,0,0,1-2.87-.64,2.86,2.86,0,0,1-1.53-1.94l2.7-.39q.32.93,1.81.93a1.75,1.75,0,0,0,.86-.17.47.47,0,0,0,.28-.38.32.32,0,0,0-.19-.3,4.88,4.88,0,0,0-.95-.27,14,14,0,0,1-2.16-.6,2.65,2.65,0,0,1-1.09-.86,2.19,2.19,0,0,1-.45-1.37,2.69,2.69,0,0,1,1.05-2.18,4.38,4.38,0,0,1,2.84-.85,5.75,5.75,0,0,1,2.78.63,2.83,2.83,0,0,1,1.46,1.58Zm6.43,3.28,2.61.64a4.56,4.56,0,0,1-1.84,2.32,4.71,4.71,0,0,1-2.35.64,3.88,3.88,0,0,1-4.05-4,5.35,5.35,0,0,1,1.34-3.58,4.44,4.44,0,0,1,3.54-1.56,4,4,0,0,1,2.71,1,3.13,3.13,0,0,1,1.11,2.48l-2.92.34c0-.93-.32-1.4-1-1.4s-.93.38-1.16,1.15a7.11,7.11,0,0,0-.34,2q0,1.26,1,1.27t1.35-1.21Zm12.13,3.34h-3.38a3.69,3.69,0,0,1,0-.4,9.1,9.1,0,0,1,.07-1,3.18,3.18,0,0,1-2.85,1.65,2.8,2.8,0,0,1-2-.71,2.32,2.32,0,0,1-.76-1.78,2.7,2.7,0,0,1,.41-1.46,2.91,2.91,0,0,1,1.17-1.06,5,5,0,0,1,1.54-.52c.52-.08,1.55-.2,3.09-.34a1.79,1.79,0,0,0,.1-.5c0-.48-.33-.71-1-.71a1.52,1.52,0,0,0-1.44,1l-2.82-.57q1.07-2.4,4.7-2.4a5.55,5.55,0,0,1,2.89.64,2.06,2.06,0,0,1,1.05,1.88,39.69,39.69,0,0,1-.61,3.94,11.8,11.8,0,0,0-.23,1.67,4,4,0,0,0,.09.76Zm-3-4.11q-2.38.18-2.38,1.51,0,.73.77.73a1.51,1.51,0,0,0,1-.43A2.8,2.8,0,0,0,252.72,120.19Zm18-4.52-4.12,8.74a5.33,5.33,0,0,1-1.86,2.44,4.62,4.62,0,0,1-2.26.52,7,7,0,0,1-1.36-.14v-2.33q1.08.1,1.61.1c.88,0,1.32-.23,1.32-.7a2.33,2.33,0,0,0-.1-.56l-2.07-8.08h3.44l.73,3.46a11.11,11.11,0,0,1,.21,1.11c.06-.11.12-.25.2-.43a4.23,4.23,0,0,1,.21-.49l1.72-3.64h2.32Zm15.73-3-1.94,11.67h-2.6l-2.23-4.49a14.73,14.73,0,0,1-1.16-2.91c0,.17,0,.31,0,.41a8.49,8.49,0,0,1-.13,1.27l-1,5.72h-2.84l1.94-11.67h3.14l1.28,2.7a33.33,33.33,0,0,1,1.73,4.14c0-.23,0-.41,0-.52a14.11,14.11,0,0,1,.23-1.9l.74-4.43Zm8.81,11.67H291.9a3.74,3.74,0,0,1,0-.4,9.13,9.13,0,0,1,.08-1,3.18,3.18,0,0,1-2.85,1.65,2.8,2.8,0,0,1-2-.71,2.32,2.32,0,0,1-.76-1.78,2.7,2.7,0,0,1,.41-1.46,2.91,2.91,0,0,1,1.17-1.06,5,5,0,0,1,1.54-.52c.52-.08,1.55-.2,3.09-.34a1.79,1.79,0,0,0,.1-.5q0-.71-1-.71a1.52,1.52,0,0,0-1.44,1l-2.82-.57q1.07-2.4,4.7-2.4a5.55,5.55,0,0,1,2.89.64,2.06,2.06,0,0,1,1.05,1.88,39.69,39.69,0,0,1-.61,3.94,11.6,11.6,0,0,0-.23,1.67A4.09,4.09,0,0,0,295.28,124.3Zm-3-4.11q-2.38.18-2.38,1.51c0,.49.26.73.77.73a1.51,1.51,0,0,0,1-.43,2.81,2.81,0,0,0,.63-1.8Zm11-4.52-.38,2.21h-1.56l-.52,3.07a4.59,4.59,0,0,0-.08.57c0,.42.27.63.81.63a3.78,3.78,0,0,0,.82-.1L302,124.3a8.71,8.71,0,0,1-1.77.19,3.51,3.51,0,0,1-1.56-.27,2.2,2.2,0,0,1-.83-.75,2.3,2.3,0,0,1-.32-1.28,9.17,9.17,0,0,1,.15-1.25l.52-3.07H297l.37-2.2h1.21l.46-2.55,3.15-.06-.45,2.61h1.56Zm9.7,0-1.43,8.63h-3.11l.27-1.61a3.17,3.17,0,0,1-2.87,1.83,2.4,2.4,0,0,1-1.73-.6,2,2,0,0,1-.63-1.48,9.88,9.88,0,0,1,.17-1.39l.9-5.4h3.32l-.83,4.94a7.54,7.54,0,0,0-.11.84c0,.43.2.64.59.64q1.12,0,1.48-2.15l.7-4.27H313Zm1.81,0h2.89l-.34,2.07q.89-2.33,2.73-2.33a2.47,2.47,0,0,1,.4,0l-.39,3.08-.59,0a2.14,2.14,0,0,0-1.57.5,3.27,3.27,0,0,0-.71,1.77l-.58,3.53h-3.28ZM329,124.3h-3.38q0-.25,0-.4a8.86,8.86,0,0,1,.08-1,3.18,3.18,0,0,1-2.85,1.65,2.8,2.8,0,0,1-2-.71,2.32,2.32,0,0,1-.77-1.78,2.71,2.71,0,0,1,.41-1.46,2.92,2.92,0,0,1,1.17-1.06,5,5,0,0,1,1.54-.52c.53-.08,1.56-.2,3.09-.34a1.84,1.84,0,0,0,.1-.5q0-.71-1-.71a1.52,1.52,0,0,0-1.44,1l-2.82-.57q1.07-2.4,4.7-2.4a5.55,5.55,0,0,1,2.89.64,2.06,2.06,0,0,1,1.05,1.88,39.69,39.69,0,0,1-.61,3.94,11.67,11.67,0,0,0-.23,1.67A4.11,4.11,0,0,0,329,124.3Zm-3-4.11q-2.38.18-2.38,1.51c0,.49.26.73.77.73a1.51,1.51,0,0,0,1-.43,2.81,2.81,0,0,0,.63-1.8Zm9.79-7.56-1.94,11.67h-3.28l1.94-11.67Zm9.35,8h-5.93a4.54,4.54,0,0,0,0,.52,1.12,1.12,0,0,0,.36.89,1.34,1.34,0,0,0,.92.32,1.52,1.52,0,0,0,1.48-1.1l2.91.47a4.59,4.59,0,0,1-1.83,2.05,5.2,5.2,0,0,1-2.8.78,4.46,4.46,0,0,1-3.13-1.1,3.85,3.85,0,0,1-1.2-3,4.94,4.94,0,0,1,5.12-5,4.19,4.19,0,0,1,3.09,1.14,4.09,4.09,0,0,1,1.15,3,6.12,6.12,0,0,1-.09,1ZM342,119a2.66,2.66,0,0,0,0-.41,1.23,1.23,0,0,0-.28-.81,1,1,0,0,0-.8-.34,1.4,1.4,0,0,0-1,.41,1.86,1.86,0,0,0-.54,1.14H342Zm11.31,3.17-.36,2.17h-7.72l.32-1.94,4.31-4.59H346.6l.35-2.1h7.44l-.28,1.68-4.51,4.78h3.7ZM363,124.3h-3.38q0-.25,0-.4a8.86,8.86,0,0,1,.08-1,3.18,3.18,0,0,1-2.85,1.65,2.8,2.8,0,0,1-2-.71,2.32,2.32,0,0,1-.76-1.78,2.71,2.71,0,0,1,.41-1.46,2.91,2.91,0,0,1,1.17-1.06,5,5,0,0,1,1.54-.52c.52-.08,1.55-.2,3.09-.34a1.8,1.8,0,0,0,.1-.5q0-.71-1-.71a1.52,1.52,0,0,0-1.44,1l-2.82-.57q1.07-2.4,4.7-2.4a5.55,5.55,0,0,1,2.89.64,2.06,2.06,0,0,1,1.05,1.88q0,.56-.61,3.94a11.67,11.67,0,0,0-.23,1.67A4,4,0,0,0,363,124.3Zm-3-4.11q-2.38.18-2.38,1.51,0,.73.77.73a1.51,1.51,0,0,0,1-.43,2.81,2.81,0,0,0,.63-1.8"/></g></g></g></g></svg>